<?xml version="1.0" encoding="utf-8"?>
<!-- Generator: Adobe Illustrator 26.2.1, SVG Export Plug-In . SVG Version: 6.00 Build 0)  -->
<svg version="1.1" id="Layer_1" xmlns="http://www.w3.org/2000/svg" xmlns:xlink="http://www.w3.org/1999/xlink" x="0px" y="0px"
	 viewBox="0 0 512 512" style="enable-background:new 0 0 512 512;" xml:space="preserve">
<style type="text/css">
	.st0{fill:#3FA9F5;}
</style>
<g>
	<path class="st0" d="M431.1,221.9c-5.6,0-10.2,4.6-10.2,10.2c0,2.6,0.9,4.9,2.5,6.7l-68.3,59.1l4.8-95.5c0.3,0,0.5,0,0.8,0
		c8.7,0,15.8-7.1,15.8-15.8s-7-15.8-15.8-15.8s-15.8,7.1-15.8,15.8c0,6.1,3.5,11.4,8.5,14L306,292.3l-42.8-147.4
		c10.8-3.1,18.7-13.1,18.7-24.9c0-14.3-11.6-25.9-25.9-25.9s-25.9,11.6-25.9,25.9c0,11.8,7.9,21.8,18.7,24.9L206,292.3l-47.4-91.6
		c5.1-2.6,8.5-7.9,8.5-14c0-8.7-7.1-15.8-15.8-15.8s-15.8,7.1-15.8,15.8s7.1,15.8,15.8,15.8c0.3,0,0.5,0,0.8,0l4.8,95.5l-68.3-59.1
		c1.6-1.8,2.5-4.1,2.5-6.7c0-5.6-4.6-10.2-10.2-10.2s-10.2,4.6-10.2,10.2s4.6,10.2,10.2,10.2c1.3,0,2.6-0.2,3.7-0.7l54.7,140.6
		c42.3-5.9,82.5-7.6,116.8-7.4c34.3-0.2,74.4,1.5,116.8,7.4l54.7-140.6c1.1,0.4,2.4,0.7,3.7,0.7c5.6,0,10.2-4.6,10.2-10.2
		C441.3,226.4,436.8,221.9,431.1,221.9z"/>
	<path class="st0" d="M370.6,395.7C338.8,389.9,256,388,256,388s-82.8,1.9-114.6,7.7l-8.4-15.4h-13.1l21.6,37.7
		c0,0,30.8-7.7,114.6-7.7s114.6,7.7,114.6,7.7l21.6-37.7H379L370.6,395.7z"/>
</g>
</svg>
